<?xml version="1.0" encoding="utf-8"?>
<!-- Generator: Adobe Illustrator 16.0.0, SVG Export Plug-In . SVG Version: 6.00 Build 0)  -->
<!DOCTYPE svg PUBLIC "-//W3C//DTD SVG 1.1//EN" "http://www.w3.org/Graphics/SVG/1.1/DTD/svg11.dtd">
<svg version="1.1"
	 id="svg7997" xmlns:dc="http://purl.org/dc/elements/1.1/" xmlns:rdf="http://www.w3.org/1999/02/22-rdf-syntax-ns#" xmlns:sodipodi="http://sodipodi.sourceforge.net/DTD/sodipodi-0.dtd" xmlns:inkscape="http://www.inkscape.org/namespaces/inkscape" xmlns:cc="http://creativecommons.org/ns#" xmlns:svg="http://www.w3.org/2000/svg" sodipodi:docname="New document 3" inkscape:version="0.48.3.1 r9886"
	 xmlns="http://www.w3.org/2000/svg" xmlns:xlink="http://www.w3.org/1999/xlink" x="0px" y="0px" width="144px" height="144px"
	 viewBox="0 0 144 144" enable-background="new 0 0 144 144" xml:space="preserve">
<sodipodi:namedview  fit-margin-top="0" bordercolor="#666666" showgrid="false" inkscape:cy="-116.57144" pagecolor="#ffffff" id="base" inkscape:zoom="0.35" fit-margin-left="0" borderopacity="1.0" inkscape:cx="398.42879" inkscape:window-y="592" inkscape:window-x="55" inkscape:pageshadow="2" inkscape:document-units="px" inkscape:pageopacity="0.0" inkscape:window-maximized="0" inkscape:window-height="421" fit-margin-right="0" inkscape:current-layer="layer1" inkscape:window-width="483" fit-margin-bottom="0">
	</sodipodi:namedview>
<linearGradient id="SVGID_1_" gradientUnits="userSpaceOnUse" x1="39.7495" y1="72.001" x2="104.251" y2="72.001">
	<stop  offset="0" style="stop-color:#FFEE85"/>
	<stop  offset="1" style="stop-color:#D6B71D"/>
</linearGradient>
<path fill="url(#SVGID_1_)" d="M99.348,54.834c0.646,6.51-1.697,11.123-7.027,13.841c4.186,1.001,7.313,2.843,9.389,5.524
	c2.074,2.684,2.879,6.51,2.414,11.48c-0.25,2.538-0.831,4.772-1.743,6.704c-0.912,1.933-2.065,3.523-3.46,4.775
	c-1.395,1.25-3.13,2.297-5.203,3.137c-2.074,0.843-4.246,1.457-6.518,1.853c-2.271,0.393-4.873,0.662-7.807,0.805v13.68h-8.261
	v-13.465c-2.86,0-5.042-0.02-6.544-0.055v13.52h-8.261v-13.68c-0.644,0-1.609-0.01-2.897-0.027
	c-1.287-0.017-2.271-0.027-2.951-0.027H39.75l1.663-9.815h5.955c1.788,0,2.825-0.912,3.11-2.733V68.781h0.858
	c-0.214-0.035-0.5-0.053-0.858-0.053V53.332c-0.463-2.432-2.056-3.647-4.773-3.647H39.75v-8.798l11.373,0.055
	c2.289,0,4.023-0.018,5.204-0.055V27.369h8.261v13.25c2.934-0.072,5.114-0.107,6.544-0.107V27.369h8.261v13.518
	c2.825,0.251,5.328,0.653,7.51,1.207c2.183,0.555,4.203,1.359,6.062,2.414c1.86,1.055,3.335,2.45,4.426,4.185
	C98.482,50.428,99.133,52.475,99.348,54.834z M87.814,84.07c0-1.287-0.269-2.432-0.806-3.435c-0.536-1.002-1.198-1.823-1.985-2.467
	c-0.785-0.646-1.812-1.188-3.084-1.637c-1.27-0.447-2.439-0.777-3.514-0.992c-1.072-0.215-2.396-0.375-3.97-0.481
	c-1.573-0.107-2.808-0.162-3.702-0.162s-2.047,0.018-3.46,0.055c-1.413,0.035-2.262,0.053-2.548,0.053v18.133
	c0.286,0,0.946,0.008,1.985,0.025c1.037,0.018,1.895,0.027,2.574,0.027s1.627-0.027,2.844-0.08c1.216-0.055,2.262-0.125,3.138-0.215
	s1.896-0.242,3.058-0.455c1.162-0.215,2.154-0.465,2.978-0.752c0.823-0.285,1.672-0.662,2.549-1.127
	c0.876-0.466,1.582-1,2.119-1.609c0.536-0.607,0.974-1.322,1.313-2.145C87.643,85.982,87.814,85.072,87.814,84.07z M84.006,58.536
	c0-1.181-0.224-2.227-0.671-3.138c-0.446-0.912-0.992-1.664-1.636-2.254c-0.645-0.59-1.502-1.09-2.575-1.502
	c-1.072-0.41-2.058-0.706-2.95-0.885c-0.893-0.179-1.992-0.322-3.299-0.43c-1.307-0.108-2.343-0.152-3.112-0.134
	c-0.769,0.019-1.734,0.036-2.896,0.054c-1.163,0.018-1.869,0.027-2.119,0.027v16.469c0.179,0,0.795,0.008,1.851,0.026
	c1.055,0.018,1.887,0.018,2.496,0c0.607-0.019,1.502-0.054,2.682-0.107c1.18-0.054,2.163-0.151,2.95-0.296
	c0.787-0.143,1.709-0.339,2.764-0.59c1.055-0.25,1.922-0.58,2.602-0.992c0.68-0.41,1.342-0.895,1.985-1.448
	c0.644-0.554,1.126-1.243,1.448-2.065C83.846,60.449,84.006,59.537,84.006,58.536z"/>
</svg>
