<?xml version="1.0" encoding="utf-8"?>
<!-- Generator: Adobe Illustrator 16.0.0, SVG Export Plug-In . SVG Version: 6.00 Build 0)  -->
<!DOCTYPE svg PUBLIC "-//W3C//DTD SVG 1.1//EN" "http://www.w3.org/Graphics/SVG/1.1/DTD/svg11.dtd">
<svg version="1.1"
	 id="svg7997" xmlns:dc="http://purl.org/dc/elements/1.1/" xmlns:rdf="http://www.w3.org/1999/02/22-rdf-syntax-ns#" xmlns:sodipodi="http://sodipodi.sourceforge.net/DTD/sodipodi-0.dtd" xmlns:inkscape="http://www.inkscape.org/namespaces/inkscape" xmlns:cc="http://creativecommons.org/ns#" xmlns:svg="http://www.w3.org/2000/svg" sodipodi:docname="New document 3" inkscape:version="0.48.3.1 r9886"
	 xmlns="http://www.w3.org/2000/svg" xmlns:xlink="http://www.w3.org/1999/xlink" x="0px" y="0px" width="144px" height="144px"
	 viewBox="0 0 144 144" enable-background="new 0 0 144 144" xml:space="preserve">
<sodipodi:namedview  fit-margin-top="0" bordercolor="#666666" showgrid="false" inkscape:cy="-116.57144" pagecolor="#ffffff" id="base" inkscape:zoom="0.35" fit-margin-left="0" borderopacity="1.0" inkscape:cx="398.42879" inkscape:window-y="592" inkscape:window-x="55" inkscape:pageshadow="2" inkscape:document-units="px" inkscape:pageopacity="0.0" inkscape:window-maximized="0" inkscape:window-height="421" fit-margin-right="0" inkscape:current-layer="layer1" inkscape:window-width="483" fit-margin-bottom="0">
	</sodipodi:namedview>
<g>
	<linearGradient id="SVGID_1_" gradientUnits="userSpaceOnUse" x1="26.3237" y1="72.0015" x2="120.0703" y2="72.0015">
		<stop  offset="0" style="stop-color:#FFEE85"/>
		<stop  offset="1" style="stop-color:#D6B71D"/>
	</linearGradient>
	<path fill="url(#SVGID_1_)" d="M120.07,54.703c-0.102,0.569-0.152,1.157-0.314,1.709c-0.6,2.045-1.202,4.088-1.863,6.114
		c-2.504,7.683-5.041,15.357-7.549,23.039c-1.07,3.281-3.02,5.984-5.447,8.373c-2.68,2.639-5.777,4.605-9.391,5.71
		c-1.35,0.413-2.732,0.624-4.145,0.624c-21.436,0-42.871,0-64.308,0c-0.209,0-0.42,0-0.729,0c0.243-0.774,0.456-1.479,0.685-2.178
		c1.219-3.729,2.453-7.457,3.652-11.194c0.157-0.487,0.364-0.649,0.887-0.649c19.139,0.016,38.277,0.01,57.417,0.027
		c0.599,0,0.848-0.162,1.035-0.742c2.313-7.113,4.66-14.213,6.998-21.316c0.631-1.924,1.26-3.848,1.889-5.773
		c0.063-0.197,0.114-0.401,0.192-0.68c-19.629,0-39.185,0-58.831,0c0.185-0.585,0.338-1.089,0.503-1.589
		c1.282-3.936,2.574-7.868,3.844-11.807c0.146-0.456,0.341-0.638,0.855-0.638c21.542,0.017,43.085,0.003,64.627,0.025
		c3.425,0.002,6.271,1.301,8.24,4.206c0.968,1.426,1.439,3.039,1.61,4.747c0.017,0.168,0.092,0.332,0.141,0.498
		C120.07,53.705,120.07,54.204,120.07,54.703z"/>
	<path fill="#C4D315" d="M23.93,78.523c0.095-0.182,0.216-0.357,0.283-0.548c1.379-3.978,2.759-7.955,4.114-11.941
		c0.161-0.47,0.378-0.615,0.873-0.614c11.179,0.016,22.357,0.013,33.536,0.013c0.176,0,0.352,0,0.604,0
		c-0.064,0.23-0.106,0.412-0.167,0.587c-1.379,4.015-2.769,8.026-4.133,12.046c-0.155,0.457-0.415,0.524-0.832,0.523
		c-11.179-0.008-22.358-0.008-33.537-0.005c-0.248,0-0.494,0.03-0.741,0.046C23.93,78.594,23.93,78.559,23.93,78.523z"/>
</g>
</svg>
