<?xml version="1.0" encoding="utf-8"?>
<!-- Generator: Adobe Illustrator 16.0.0, SVG Export Plug-In . SVG Version: 6.00 Build 0)  -->
<!DOCTYPE svg PUBLIC "-//W3C//DTD SVG 1.1//EN" "http://www.w3.org/Graphics/SVG/1.1/DTD/svg11.dtd">
<svg version="1.1"
	 id="svg7997" xmlns:dc="http://purl.org/dc/elements/1.1/" xmlns:rdf="http://www.w3.org/1999/02/22-rdf-syntax-ns#" xmlns:sodipodi="http://sodipodi.sourceforge.net/DTD/sodipodi-0.dtd" xmlns:inkscape="http://www.inkscape.org/namespaces/inkscape" xmlns:cc="http://creativecommons.org/ns#" xmlns:svg="http://www.w3.org/2000/svg" sodipodi:docname="New document 3" inkscape:version="0.48.3.1 r9886"
	 xmlns="http://www.w3.org/2000/svg" xmlns:xlink="http://www.w3.org/1999/xlink" x="0px" y="0px" width="144px" height="144px"
	 viewBox="0 0 144 144" enable-background="new 0 0 144 144" xml:space="preserve">
<sodipodi:namedview  fit-margin-top="0" bordercolor="#666666" showgrid="false" inkscape:cy="-116.57144" pagecolor="#ffffff" id="base" inkscape:zoom="0.35" fit-margin-left="0" borderopacity="1.0" inkscape:cx="398.42879" inkscape:window-y="592" inkscape:window-x="55" inkscape:pageshadow="2" inkscape:document-units="px" inkscape:pageopacity="0.0" inkscape:window-maximized="0" inkscape:window-height="421" fit-margin-right="0" inkscape:current-layer="layer1" inkscape:window-width="483" fit-margin-bottom="0">
	</sodipodi:namedview>
<g>
	<path fill="#C4D315" d="M71.909,17.809c0.412-0.117,0.382,0.291,0.487,0.464c3.057,5.043,6.095,10.096,9.141,15.146
		c7.977,13.236,15.957,26.469,23.936,39.706c0.105,0.174,0.215,0.346,0.311,0.525c0.124,0.228,0.012,0.333-0.214,0.367
		c-0.213-0.205-0.454-0.359-0.729-0.482c-5.093-2.292-10.169-4.616-15.253-6.923c-4.674-2.12-9.34-4.258-14.02-6.366
		c-0.556-0.25-1.106-0.513-1.668-0.751c-0.679-0.287-1.29-0.783-2.099-0.652c-0.08-0.146-0.086-0.306-0.108-0.465
		c-0.028-0.271-0.018-0.543-0.018-0.813c-0.001-12.654-0.001-25.308-0.001-37.962C71.672,18.995,71.66,18.385,71.909,17.809z"/>
	<linearGradient id="SVGID_1_" gradientUnits="userSpaceOnUse" x1="38.2197" y1="45.8081" x2="71.9194" y2="45.8081">
		<stop  offset="0" style="stop-color:#FFEE85"/>
		<stop  offset="1" style="stop-color:#D6B71D"/>
	</linearGradient>
	<path fill="url(#SVGID_1_)" d="M71.909,17.809c0.003,0.427,0.01,0.855,0.01,1.282c0,12.706,0,25.41-0.001,38.115
		c0,0.429-0.023,0.858-0.035,1.286c-0.274,0.4-0.725,0.537-1.131,0.714c-5.049,2.21-10.043,4.541-15.062,6.816
		c-4.813,2.183-9.638,4.342-14.431,6.571c-0.777,0.362-1.549,0.742-2.35,1.052c-0.22,0.084-0.437,0.274-0.69,0.071
		c0.97-1.652,1.925-3.314,2.915-4.955C47.337,58.46,53.55,48.163,59.76,37.864c3.968-6.582,7.935-13.163,11.906-19.744
		C71.731,18.009,71.827,17.913,71.909,17.809z"/>
	<path fill="#303118" d="M38.22,73.717c1.528-0.551,2.972-1.296,4.45-1.963c6.909-3.122,13.807-6.266,20.708-9.401
		c2.834-1.287,5.67-2.574,8.506-3.86c0.003,0.145,0.008,0.29,0.012,0.436c0.29,0.148,0.298,0.434,0.329,0.7
		c0.039,0.337,0.025,0.678,0.025,1.017c0.001,10.381-0.002,20.763,0.008,31.145c0,0.628-0.145,1.263,0.043,1.89
		c-0.35,0.412-0.618,0.033-0.873-0.117c-4.131-2.431-8.256-4.874-12.383-7.312c-6.794-4.014-13.591-8.024-20.38-12.047
		C38.482,74.098,38.131,74.091,38.22,73.717z"/>
	<path fill="#756D1E" d="M72.299,93.679c-0.332,0.011-0.474-0.15-0.362-0.461c0.126-0.354,0.084-0.718,0.084-1.073
		c0.001-10.673,0.001-21.344,0.003-32.015c0-0.406-0.006-0.809-0.13-1.201c0.157-0.456,0.463-0.36,0.784-0.212
		c1.206,0.556,2.409,1.118,3.618,1.667c3.51,1.593,7.023,3.178,10.531,4.773c2.521,1.146,5.036,2.309,7.559,3.453
		c3.59,1.627,7.186,3.242,10.776,4.866c0.226,0.104,0.572,0.138,0.406,0.544c-2.775,1.653-5.545,3.314-8.326,4.959
		c-8.191,4.845-16.387,9.685-24.581,14.525C72.547,93.571,72.42,93.62,72.299,93.679z"/>
	<path fill="#303118" d="M105.423,79.151c-6.855,9.661-13.71,19.323-20.566,28.982c-4.229,5.954-8.459,11.905-12.688,17.858
		c-0.512,0.062-0.452-0.362-0.457-0.621c-0.011-0.588-0.041-1.174-0.041-1.762c0.001-7.96-0.001-15.918,0.008-23.875
		c0-0.454-0.147-0.973,0.354-1.298c11.04-6.52,22.08-13.036,33.122-19.555C105.444,78.772,105.538,78.857,105.423,79.151z"/>
	<path fill="#756D1E" d="M72.033,98.437c-0.133,0.253-0.114,0.523-0.114,0.794c0,8.29,0,16.583,0,24.873
		c0,0.45-0.009,0.9,0.003,1.351c0.006,0.206-0.096,0.48,0.247,0.538c-0.298,0.502-0.366,0.006-0.459-0.126
		c-1.159-1.615-2.306-3.241-3.456-4.862c-8.945-12.604-17.89-25.208-26.835-37.812c-1.02-1.435-2.042-2.87-3.063-4.306
		c-0.003-0.219,0.083-0.254,0.25-0.117c5.315,3.133,10.63,6.265,15.945,9.399c5.667,3.344,11.331,6.689,16.998,10.032
		C71.702,98.292,71.872,98.358,72.033,98.437z"/>
	<path fill="#848484" d="M105.423,79.151c0.012-0.191-0.087-0.272-0.269-0.269c0.152-0.198,0.362-0.291,0.649-0.36
		C105.79,78.824,105.613,78.993,105.423,79.151z"/>
	<path fill="#BBBBBB" d="M38.604,78.77c-0.105-0.009-0.194,0.02-0.25,0.117c-0.116-0.082-0.242-0.267-0.162-0.318
		C38.366,78.454,38.513,78.601,38.604,78.77z"/>
</g>
</svg>
